<svg width="116" height="34" viewBox="0 0 116 34" fill="none" xmlns="http://www.w3.org/2000/svg">
<path d="M5.41373 22.3586C5.01316 21.6862 5.28979 20.8148 6.00488 20.4965L12.3384 17.6776C12.7212 17.5072 13.1625 17.5308 13.525 17.741L17.144 19.8398C17.5046 20.0489 17.7437 20.4175 17.7877 20.832L18.5267 27.7914C18.6091 28.5674 17.9972 29.2421 17.2168 29.2357L14.2892 29.2116C13.5013 29.2051 12.8984 28.5079 13.0057 27.7273L13.5911 23.4683C13.6392 23.1189 13.4707 22.7753 13.1651 22.5993C12.8591 22.4231 12.4767 22.4502 12.1986 22.6678L8.86447 25.2764C8.24462 25.7613 7.33985 25.5922 6.93709 24.916L5.41373 22.3586Z" fill="white"/>
<path fill-rule="evenodd" clip-rule="evenodd" d="M19.1675 19.6494L24.7643 23.7663C25.0812 23.9994 25.5307 23.9016 25.7221 23.5578L27.1725 20.9524C27.3635 20.6093 27.2107 20.1764 26.8467 20.0291L22.8812 18.4249C22.3069 18.1926 21.931 17.6351 21.931 17.0155C21.931 16.4 22.3022 15.8451 22.8712 15.6102L26.8506 13.9676C27.2128 13.818 27.3628 13.3854 27.1708 13.0438L25.7256 10.472C25.5334 10.1299 25.0852 10.0333 24.7691 10.2658L19.1675 14.3861C19.0001 14.5092 18.9013 14.7046 18.9013 14.9123V19.1232C18.9013 19.3309 19.0001 19.5263 19.1675 19.6494ZM18.7804 20.1756C18.4457 19.9294 18.2481 19.5387 18.2481 19.1232V14.9123C18.2481 14.4968 18.4457 14.1061 18.7804 13.86L24.3821 9.7396C25.0142 9.27465 25.9106 9.4679 26.2951 10.152L27.7402 12.7238C28.1242 13.4071 27.8243 14.2723 27.0998 14.5713L23.1205 16.214C22.7959 16.348 22.5842 16.6644 22.5842 17.0155C22.5842 17.3689 22.7986 17.6869 23.1261 17.8194L27.0917 19.4236C27.8197 19.7181 28.1252 20.5839 27.7432 21.2701L26.2928 23.8756C25.9101 24.563 25.011 24.7587 24.3772 24.2925L18.7804 20.1756Z" fill="#2DEBFC"/>
<path d="M17.1441 14.1477C17.5047 13.9386 17.7438 13.57 17.7878 13.1555L18.5255 6.20827C18.6083 5.42793 17.9894 4.75114 17.2048 4.7641L14.2768 4.81245C13.4933 4.82539 12.8974 5.52032 13.0041 6.29658L13.591 10.5664C13.6392 10.9166 13.4702 11.2612 13.1638 11.4375C12.8583 11.6133 12.477 11.5872 12.1984 11.3713L8.81845 8.7525C8.19711 8.27107 7.29439 8.44336 6.89404 9.1198L5.40812 11.6304C5.01021 12.3028 5.28742 13.1717 6.00116 13.4894L12.3384 16.3099C12.7213 16.4803 13.1626 16.4567 13.5251 16.2465L17.1441 14.1477Z" fill="#2C85FC"/>
<path d="M48.0726 15.906V24.4084H51.2361V13.573H46.629V15.906H48.0726Z" fill="white"/>
<path d="M47.9735 12.0507C48.2635 12.3538 48.7051 12.5053 49.2982 12.5053C49.8917 12.5053 50.3264 12.3538 50.603 12.0507C50.8933 11.7342 51.038 11.3387 51.038 10.8643C51.038 10.3765 50.8933 9.98104 50.603 9.67795C50.3264 9.36161 49.8917 9.20337 49.2982 9.20337C48.7051 9.20337 48.2635 9.36161 47.9735 9.67795C47.6969 9.98104 47.5584 10.3765 47.5584 10.8643C47.5584 11.3387 47.6969 11.7342 47.9735 12.0507Z" fill="white"/>
<path d="M72.6699 24.3578C72.96 24.6609 73.4015 24.8125 73.9946 24.8125C74.5881 24.8125 75.0228 24.6609 75.2994 24.3578C75.5897 24.0413 75.7344 23.6459 75.7344 23.1714C75.7344 22.6837 75.5897 22.2882 75.2994 21.9851C75.0228 21.6687 74.5881 21.5105 73.9946 21.5105C73.4015 21.5105 72.96 21.6687 72.6699 21.9851C72.3933 22.2882 72.2548 22.6837 72.2548 23.1714C72.2548 23.6459 72.3933 24.0413 72.6699 24.3578Z" fill="white"/>
<path d="M37.0596 24.1709C37.9558 24.5795 39.0564 24.784 40.3612 24.784C41.5872 24.784 42.6415 24.5929 43.525 24.2105C44.4081 23.8283 45.0868 23.2943 45.5613 22.6091C46.0493 21.9102 46.2929 21.0996 46.2929 20.1769C46.2929 19.2806 46.0627 18.5226 45.6012 17.903C45.1528 17.2704 44.527 16.7761 43.7226 16.4203C42.9185 16.0511 41.9893 15.8204 40.9347 15.7282L39.8275 15.6294C39.1684 15.5765 38.6939 15.3987 38.4039 15.0954C38.1138 14.7923 37.9688 14.4363 37.9688 14.0278C37.9688 13.7113 38.0482 13.4214 38.2059 13.1578C38.3643 12.8809 38.6015 12.6634 38.9179 12.5052C39.2475 12.3471 39.6495 12.268 40.1241 12.268C40.6248 12.268 41.0402 12.3602 41.3697 12.5448C41.4422 12.5839 41.5111 12.6256 41.5758 12.6698L41.5915 12.6808C41.6157 12.6975 41.6395 12.7149 41.6627 12.7324C41.8629 12.8854 42.0223 13.0667 42.1408 13.2763C42.312 13.5664 42.3982 13.8893 42.3982 14.2452H45.5613C45.5613 13.2961 45.3438 12.4723 44.9091 11.7737C44.4741 11.0619 43.848 10.5149 43.0308 10.1325C42.2264 9.73703 41.2577 9.53931 40.1241 9.53931C39.043 9.53931 38.1073 9.72397 37.3163 10.093C36.5256 10.449 35.906 10.963 35.4579 11.6352C35.0226 12.3075 34.805 13.1051 34.805 14.0278C34.805 15.3063 35.2339 16.3345 36.0905 17.1123C36.9472 17.89 38.0942 18.3381 39.531 18.4567L40.6185 18.5556C41.5014 18.6347 42.1408 18.8127 42.5364 19.0894C42.9315 19.353 43.1295 19.7155 43.1295 20.1769C43.1295 20.389 43.0948 20.5878 43.0253 20.7736C42.9737 20.9114 42.9031 21.0421 42.8133 21.1655C42.602 21.4425 42.2924 21.6597 41.8838 21.8181C41.4752 21.9762 40.9677 22.0552 40.3612 22.0552C39.689 22.0552 39.142 21.9631 38.7203 21.7786C38.2984 21.5807 37.9822 21.3236 37.7709 21.0075C37.5733 20.691 37.4747 20.3484 37.4747 19.9792H34.3308C34.3308 20.915 34.5614 21.7456 35.0226 22.4706C35.484 23.1823 36.163 23.7493 37.0596 24.1709Z" fill="white"/>
<path d="M79.8828 24.1709C80.7789 24.5795 81.8796 24.784 83.1844 24.784C84.4104 24.784 85.4647 24.5929 86.3482 24.2105C87.2313 23.8283 87.91 23.2943 88.3845 22.6091C88.8725 21.9102 89.1161 21.0996 89.1161 20.1769C89.1161 19.2806 88.8859 18.5226 88.4244 17.903C87.9759 17.2704 87.3502 16.7761 86.5458 16.4203C85.7417 16.0511 84.8125 15.8204 83.7579 15.7282L82.6507 15.6294C81.9916 15.5765 81.5171 15.3987 81.227 15.0954C80.937 14.7923 80.792 14.4363 80.792 14.0278C80.792 13.7113 80.8714 13.4214 81.0291 13.1578C81.1875 12.8809 81.4246 12.6634 81.7411 12.5052C82.0707 12.3471 82.4727 12.268 82.9473 12.268C83.4479 12.268 83.8634 12.3602 84.1929 12.5448C84.2654 12.5839 84.3343 12.6256 84.399 12.6698L84.4147 12.6808C84.4388 12.6975 84.4627 12.7149 84.4859 12.7324C84.6861 12.8854 84.8455 13.0667 84.964 13.2763C85.1352 13.5664 85.2214 13.8893 85.2214 14.2452H88.3845C88.3845 13.2961 88.167 12.4723 87.7323 11.7737C87.2973 11.0619 86.6712 10.5149 85.854 10.1325C85.0496 9.73703 84.0809 9.53931 82.9473 9.53931C81.8662 9.53931 80.9305 9.72397 80.1395 10.093C79.3488 10.449 78.7292 10.963 78.2811 11.6352C77.8457 12.3075 77.6282 13.1051 77.6282 14.0278C77.6282 15.3063 78.057 16.3345 78.9137 17.1123C79.7704 17.89 80.9174 18.3381 82.3541 18.4567L83.4417 18.5556C84.3245 18.6347 84.964 18.8127 85.3595 19.0894C85.7547 19.353 85.9526 19.7155 85.9526 20.1769C85.9526 20.389 85.918 20.5878 85.8485 20.7736C85.7969 20.9114 85.7263 21.0421 85.6365 21.1655C85.4252 21.4425 85.1156 21.6597 84.707 21.8181C84.2984 21.9762 83.7909 22.0552 83.1844 22.0552C82.5122 22.0552 81.9652 21.9631 81.5435 21.7786C81.1216 21.5807 80.8054 21.3236 80.5941 21.0075C80.3965 20.691 80.2979 20.3484 80.2979 19.9792H77.154C77.154 20.915 77.3846 21.7456 77.8457 22.4706C78.3072 23.1823 78.9862 23.7493 79.8828 24.1709Z" fill="white"/>
<path d="M58.2947 24.5466C57.2006 24.5466 56.3175 24.415 55.6453 24.1511C54.9728 23.8744 54.4787 23.4198 54.1622 22.7872C53.8591 22.1411 53.7076 21.2711 53.7076 20.1769V15.8863H52.0664V13.573H53.7076V10.6467H56.6535V13.573H59.8173V15.8863H56.6535V20.2957C56.6535 20.8098 56.7855 21.2051 57.049 21.4817C57.3257 21.7456 57.7147 21.8773 58.2157 21.8773H59.8173V24.5466H58.2947Z" fill="white"/>
<path d="M107.551 24.5466C106.457 24.5466 105.573 24.415 104.901 24.1511C104.229 23.8744 103.735 23.4198 103.418 22.7872C103.115 22.1411 102.964 21.2711 102.964 20.1769V15.8863H101.322V13.573H102.964V10.6467H105.91V13.573H109.073V15.8863H105.91V20.2957C105.91 20.8098 106.042 21.2051 106.305 21.4817C106.582 21.7456 106.971 21.8773 107.472 21.8773H109.073V24.5466H107.551Z" fill="white"/>
<path fill-rule="evenodd" clip-rule="evenodd" d="M63.6261 24.3094C64.3378 24.6259 65.1553 24.784 66.0779 24.784C66.9872 24.784 67.7916 24.6259 68.4902 24.3094C69.1888 23.993 69.7689 23.5514 70.23 22.9847C70.6915 22.4178 71.0015 21.7721 71.1592 21.047H68.2528C68.1212 21.3765 67.8707 21.6532 67.5016 21.8772C67.1325 22.1016 66.6577 22.2136 66.0779 22.2136C65.7187 22.2136 65.3976 22.1712 65.1148 22.0859C64.8996 22.0213 64.7065 21.9321 64.5357 21.8181C64.1402 21.5545 63.8502 21.1852 63.6657 20.7109C63.6144 20.5757 63.5706 20.4343 63.5337 20.2871C63.4962 20.1379 63.4658 19.9827 63.4429 19.8211H71.3571V18.7533C71.3571 17.7647 71.1461 16.8552 70.7245 16.0248C70.3025 15.181 69.6895 14.5022 68.8857 13.9882C68.0947 13.4609 67.1191 13.1973 65.9591 13.1973C65.0759 13.1973 64.2849 13.3555 63.5863 13.6718C62.9014 13.9749 62.3279 14.3901 61.8664 14.9174C61.4052 15.4447 61.0492 16.0445 60.7984 16.7169C60.5613 17.3758 60.4427 18.0678 60.4427 18.7928V19.1883C60.4427 19.887 60.5613 20.5724 60.7984 21.2446C61.0492 21.9037 61.4052 22.5033 61.8664 23.0438C62.341 23.5713 62.9272 23.993 63.6261 24.3094ZM63.4975 17.866C63.5063 17.8241 63.5154 17.7829 63.5255 17.7423C63.553 17.6305 63.5847 17.5234 63.6206 17.421C63.6408 17.3627 63.6624 17.3059 63.6856 17.2507C63.8832 16.7629 64.1732 16.3938 64.5553 16.1434C64.6984 16.0498 64.8532 15.9737 65.0194 15.9151C65.299 15.8169 65.6125 15.7677 65.9591 15.7677C66.4999 15.7677 66.9477 15.893 67.3037 16.1434C67.6727 16.3806 67.9497 16.7299 68.1342 17.1913C68.1492 17.2285 68.1633 17.2664 68.177 17.3048C68.1989 17.3659 68.2191 17.4287 68.2381 17.493C68.2658 17.5886 68.2903 17.6876 68.3119 17.79C68.3276 17.8655 68.341 17.9427 68.353 18.0218H63.4671C63.4762 17.9689 63.4864 17.9171 63.4975 17.866Z" fill="white"/>
<path fill-rule="evenodd" clip-rule="evenodd" d="M93.0747 24.3094C93.7864 24.6259 94.6039 24.784 95.5265 24.784C96.4358 24.784 97.2402 24.6259 97.9388 24.3094C98.6374 23.993 99.2175 23.5514 99.6786 22.9847C100.14 22.4178 100.45 21.7721 100.608 21.047H97.7014C97.5698 21.3765 97.3193 21.6532 96.9502 21.8772C96.5811 22.1016 96.1063 22.2136 95.5265 22.2136C95.1673 22.2136 94.8462 22.1712 94.5634 22.0859C94.3482 22.0213 94.1551 21.9321 93.9843 21.8181C93.5888 21.5545 93.2988 21.1852 93.1143 20.7109C93.063 20.5757 93.0192 20.4343 92.9823 20.2871C92.9448 20.1379 92.9144 19.9827 92.8915 19.8211H100.806V18.7533C100.806 17.7647 100.595 16.8552 100.173 16.0248C99.7511 15.181 99.1381 14.5022 98.3343 13.9882C97.5433 13.4609 96.5678 13.1973 95.4077 13.1973C94.5245 13.1973 93.7335 13.3555 93.0349 13.6718C92.35 13.9749 91.7765 14.3901 91.315 14.9174C90.8539 15.4447 90.4979 16.0445 90.247 16.7169C90.0099 17.3758 89.8914 18.0678 89.8914 18.7928V19.1883C89.8914 19.887 90.0099 20.5724 90.247 21.2446C90.4979 21.9037 90.8539 22.5033 91.315 23.0438C91.7896 23.5713 92.3758 23.993 93.0747 24.3094ZM92.9461 17.866C92.9549 17.8241 92.964 17.7829 92.9742 17.7423C93.0016 17.6305 93.0333 17.5234 93.0692 17.421C93.0894 17.3627 93.111 17.3059 93.1342 17.2507C93.3318 16.7629 93.6218 16.3938 94.0039 16.1434C94.147 16.0498 94.3018 15.9737 94.468 15.9151C94.7476 15.8169 95.0611 15.7677 95.4077 15.7677C95.9485 15.7677 96.3963 15.893 96.7523 16.1434C97.1213 16.3806 97.3983 16.7299 97.5828 17.1913C97.5979 17.2285 97.6119 17.2664 97.6256 17.3048C97.6475 17.3659 97.6677 17.4287 97.6867 17.493C97.7145 17.5886 97.7389 17.6876 97.7605 17.79C97.7762 17.8655 97.7896 17.9427 97.8017 18.0218H92.9157C92.9248 17.9689 92.935 17.9171 92.9461 17.866Z" fill="white"/>
</svg>
